<?xml version="1.0" encoding="UTF-8"?>
<svg id="Layer_2" data-name="Layer 2" xmlns="http://www.w3.org/2000/svg" viewBox="0 0 737.21 64.75">
  <defs>
    <style>
      .cls-1 {
        fill: aqua;
      }
    </style>
  </defs>
  <g id="Layer_2-2" data-name="Layer 2">
    <g>
      <polygon class="cls-1" points="180.84 35.56 173.35 35.56 177.09 42.05 180.84 35.56"/>
      <path class="cls-1" d="M169.19,9.29c.28-.11,.53-.26,.75-.46,.21-.2,.39-.43,.52-.71,.13-.27,.2-.59,.2-.93v-1.41c0-.35-.07-.66-.2-.93-.13-.27-.3-.51-.52-.71-.21-.2-.46-.35-.75-.46-.29-.11-.58-.16-.89-.16h-5.54c-.16-.05-.24-.14-.24-.29,0-.08,.03-.15,.06-.2,.03-.05,.09-.08,.18-.1h7.9V.27h-8.53c-.31,0-.6,.05-.89,.16-.28,.11-.53,.26-.75,.46-.21,.2-.39,.43-.52,.71s-.2,.59-.2,.93v1.41c0,.35,.07,.66,.2,.93s.3,.51,.52,.71c.21,.2,.46,.35,.75,.46,.29,.11,.58,.16,.89,.16h5.54c.16,.05,.24,.14,.24,.28,0,.06-.03,.12-.06,.18s-.09,.11-.18,.13h-7.9v2.67h8.53c.31,0,.6-.05,.89-.16Z"/>
      <polygon class="cls-1" points="182.54 6.78 174.41 6.78 174.41 6.19 180.97 6.19 180.97 3.53 174.41 3.53 174.41 2.95 182.54 2.95 182.54 .27 171.66 .27 171.66 9.45 182.54 9.45 182.54 6.78"/>
      <path class="cls-1" d="M184.25,8.84c.21,.2,.46,.35,.75,.46,.29,.11,.58,.16,.89,.16h8.53v-2.67h-7.62c-.13,0-.25-.04-.36-.13s-.16-.17-.16-.27V3.34c0-.09,.05-.18,.16-.27s.23-.13,.36-.13h7.62V.27h-8.53c-.31,0-.6,.05-.89,.16-.28,.11-.53,.26-.75,.46-.21,.2-.39,.43-.52,.71s-.2,.59-.2,.93V7.2c0,.35,.07,.66,.2,.93,.13,.28,.3,.51,.52,.71Z"/>
      <path class="cls-1" d="M207.39,.28h-10.86V9.44l3.67-.02-23.1,40.02-23.1-40.02,3.62,.02V.29h-10.8c-3.74-.01-6.08,4.03-4.21,7.27l30.29,52.58c1.87,3.24,6.54,3.24,8.41,0L211.6,7.56c1.87-3.24-.47-7.28-4.21-7.28Z"/>
    </g>
    <g>
      <path class="cls-1" d="M395.98,29.9v-3.77c0-1.55-.77-2.32-2.32-2.32h-7.71v8.41h7.71c1.55,0,2.32-.77,2.32-2.32Z"/>
      <path class="cls-1" d="M431.33,17.2v-7.5c0-5.21-4.26-9.48-9.48-9.48h-45.01c-5.21,0-9.48,4.26-9.48,9.48v7.5h4.34v2.37h-4.34v25.27h4.34v2.37h-4.34v7.5c0,5.21,4.26,9.48,9.48,9.48h45.01c5.21,0,9.48-4.26,9.48-9.48v-7.5h-5.13v-2.37h5.13V19.56h-5.13v-2.37h5.13Zm-33.09,25.15h-1.62l-4.24-8.35h-6.44v8.35h-1.94V22.05h9.56c2.9,0,4.35,1.45,4.35,4.35v3.21c0,2.59-1.15,4.03-3.44,4.32l4.03,7.91-.26,.5Zm16.45,0h-11.82v-1.76h5.18V23.82h-4.06v-.88l1.12-.88h4.88v18.53h4.71v1.76Z"/>
    </g>
    <g>
      <path class="cls-1" d="M95.37,5.85l-.19,1.68,.75-.35s.06-.06,.09-.1,.03-.08,.01-.11l-.49-1.07s-.1-.06-.17-.06Z"/>
      <path class="cls-1" d="M93.49,6.75s-.03,.07-.02,.1l.49,1.07s.07,.07,.14,.07l.18-1.67-.71,.33s-.06,.06-.08,.1Z"/>
      <path class="cls-1" d="M124.18,18.43l1.42,.38,6.12-3.53,.32-1.18C126.41,5.68,116.83,.12,105.97,.12s-20.49,5.58-26.11,14.04l.29,1.1,6.18,3.57,1.41-.38c4.07-5.68,10.72-9.4,18.23-9.4s14.14,3.71,18.21,9.38Zm-37.96-2.7c-.08,.09-.17,.16-.27,.22-.1,.05-.21,.09-.32,.1-.11,.01-.22,0-.33-.03-.11-.03-.22-.09-.32-.18l-1.34-1.18c-.1-.09-.17-.18-.22-.29-.05-.11-.07-.22-.07-.33,0-.11,.02-.22,.06-.33,.04-.11,.1-.21,.18-.3l2.15-2.45,.77,.67-1.92,2.19s-.05,.08-.05,.13c0,.05,0,.09,.04,.11l.88,.77s.07,.03,.12,.02c.05,0,.09-.03,.13-.07l1.92-2.19,.77,.67-2.15,2.45Zm4.88-4.68l-.77-.97-1.69,1.35,.77,.97-.82,.65-2.19-2.74,.82-.65,.78,.97,1.69-1.35-.78-.97,.82-.65,2.19,2.74-.82,.65Zm1.22-.81l-.54-.87,.89-.55,.54,.87-.89,.55Zm4.81-2.74c-.04,.1-.11,.19-.19,.28-.08,.08-.18,.15-.28,.2l-2.33,1.07c-.11,.05-.22,.08-.33,.09-.12,0-.23,0-.33-.04-.11-.03-.2-.09-.29-.16-.09-.07-.16-.17-.22-.29l-.74-1.62c-.05-.12-.08-.24-.08-.35,0-.12,.02-.23,.07-.33,.04-.1,.11-.19,.19-.28,.08-.08,.18-.15,.28-.2l2.33-1.07c.11-.05,.22-.08,.33-.09,.12,0,.23,0,.33,.04,.11,.03,.2,.09,.29,.16,.09,.07,.16,.17,.22,.29l.74,1.62c.06,.12,.08,.24,.08,.35,0,.12-.02,.23-.07,.33Zm4.36-1.17c-.06,.09-.14,.17-.23,.24-.1,.07-.2,.11-.31,.14l-3.16,.8-.25-.99,2.93-.74s.05-.04,.05-.06c0-.03,0-.05,0-.07-.01-.05-.05-.08-.1-.08l-2.35,.59-.25-1,2.35-.59c.05-.03,.07-.07,.06-.13-.01-.03-.02-.05-.03-.06-.01-.01-.04-.02-.07-.02l-2.93,.74-.25-.99,3.16-.8c.11-.03,.23-.04,.34-.02,.12,.01,.22,.05,.32,.1,.1,.05,.18,.12,.26,.21,.07,.09,.13,.2,.16,.33l.11,.43s.01,.07,0,.12,0,.09-.01,.14c0,.05-.02,.09-.04,.13s-.04,.08-.07,.11c.04,.02,.08,.04,.12,.07,.04,.03,.07,.06,.1,.1,.03,.04,.05,.08,.07,.11,.02,.04,.04,.07,.04,.1l.11,.43c.03,.13,.04,.25,.01,.36-.02,.11-.07,.22-.13,.31Z"/>
      <path class="cls-1" d="M134,17.5l-1.14-.31-6.18,3.57-.36,1.36c1.31,2.84,2.05,6.01,2.05,9.34,0,11.62-8.9,21.2-20.24,22.3l-1.07,1.07v7.07l.83,.83c16.38-1,29.4-14.64,29.4-31.26,0-5.01-1.19-9.75-3.29-13.95Z"/>
      <path class="cls-1" d="M83.56,31.45c0-3.3,.72-6.44,2.01-9.26l-.39-1.45-6.12-3.53-1.15,.31c-2.1,4.2-3.28,8.93-3.28,13.94,0,16.63,13.02,30.26,29.4,31.26l.8-.8v-7.13l-1.04-1.04c-11.34-1.09-20.24-10.68-20.24-22.3Z"/>
    </g>
    <g>
      <path class="cls-1" d="M353.68,20.84c-.34-.89-1.4-1.27-2.23-.79l-1.72,.99-1.55-2.68,2.01-1.16c.77-.45,1-1.45,.52-2.2-5.69-8.85-15.62-14.72-26.93-14.72s-21.23,5.87-26.93,14.72c-.48,.75-.25,1.75,.52,2.2l2.01,1.16-1.55,2.68-1.72-.99c-.83-.48-1.89-.1-2.23,.79-1.36,3.55-2.11,7.41-2.11,11.44,0,3.27,.5,6.43,1.41,9.4h61.18c.91-2.97,1.41-6.13,1.41-9.4,0-4.03-.75-7.89-2.11-11.44Z"/>
      <path class="cls-1" d="M320.52,64.11c.92,.09,1.72-.62,1.72-1.54v-2.16h3.1v2.16c0,.92,.8,1.64,1.72,1.54,9.2-.93,17.24-5.77,22.46-12.81h-51.46c5.22,7.05,13.26,11.88,22.46,12.81Z"/>
      <polygon class="cls-1" points="299.87 47.11 301.5 49.6 302.53 49.6 302.65 49.35 300.52 46.17 302.52 43.18 302.41 42.94 301.37 42.94 299.87 45.23 298.36 42.94 297.34 42.94 297.22 43.18 299.22 46.17 297.1 49.35 297.21 49.6 298.24 49.6 299.87 47.11"/>
      <path class="cls-1" d="M305.56,44h3.16v-.62l-.57-.44h-2.63c-1.04,0-1.56,.52-1.56,1.56v3.53c0,1.04,.52,1.56,1.56,1.56h2.63l.57-.44v-.62h-3.16c-.28,0-.42-.14-.42-.42v-3.69c0-.28,.14-.42,.42-.42Z"/>
      <path class="cls-1" d="M314.09,49.6c1.04,0,1.56-.52,1.56-1.56v-3.53c0-1.04-.52-1.56-1.56-1.56h-2.23c-1.04,0-1.56,.52-1.56,1.56v3.53c0,1.04,.52,1.56,1.56,1.56h2.23Zm-2.62-1.49v-3.69c0-.28,.14-.42,.42-.42h2.15c.28,0,.42,.14,.42,.42v3.69c0,.28-.14,.42-.42,.42h-2.15c-.28,0-.42-.14-.42-.42Z"/>
      <path class="cls-1" d="M322.21,45.59v-1.09c0-1.04-.52-1.56-1.56-1.56h-3.21v6.66h1.18v-2.44h1.41l1.24,2.44h1l.14-.25-1.16-2.27c.64-.17,.97-.67,.97-1.49Zm-1.18,.08c0,.28-.14,.42-.42,.42h-2v-2.09h2c.28,0,.42,.14,.42,.42v1.24Z"/>
      <polygon class="cls-1" points="328.48 44 328.48 42.94 324 42.94 324 49.6 328.48 49.6 328.48 48.53 325.18 48.53 325.18 46.67 328.19 46.67 328.19 45.61 325.18 45.61 325.18 44 328.48 44"/>
      <rect class="cls-1" x="329.74" y="46.17" width="2.83" height=".96"/>
      <path class="cls-1" d="M336.92,49.6c1.05,0,1.57-.52,1.57-1.56v-3.53c0-1.04-.52-1.56-1.57-1.56h-1.35c-1.05,0-1.57,.52-1.57,1.56v3.53c0,1.04,.52,1.56,1.57,1.56h1.35Zm-1.75-1.49v-3.69c0-.28,.14-.42,.42-.42h1.29c.28,0,.42,.14,.42,.42v3.69c0,.28-.14,.42-.42,.42h-1.29c-.28,0-.42-.14-.42-.42Z"/>
      <path class="cls-1" d="M342.98,45.6l-1.85,.37c-.75,.15-1.13,.66-1.13,1.51v2.11h4.5v-1.06h-3.32v-1.08c0-.25,.11-.4,.34-.44l1.85-.37c.75-.15,1.13-.66,1.13-1.52v-.63c0-1.04-.52-1.56-1.57-1.56h-2.16l-.57,.44v.62h2.7c.28,0,.42,.14,.42,.42v.73c0,.25-.11,.4-.34,.44Z"/>
      <path class="cls-1" d="M348.92,42.94h-1.35c-1.05,0-1.57,.52-1.57,1.56v.66c0,.26,.08,.47,.24,.63l.34,.34-.34,.34c-.16,.16-.24,.37-.24,.63v.95c0,1.04,.52,1.56,1.57,1.56h1.35c1.05,0,1.57-.52,1.57-1.56v-.95c0-.26-.08-.47-.24-.63l-.34-.34,.34-.34c.16-.16,.24-.37,.24-.63v-.66c0-1.04-.52-1.56-1.57-1.56Zm.4,5.17c0,.28-.14,.42-.42,.42h-1.29c-.28,0-.42-.14-.42-.42v-1.01c0-.28,.14-.42,.42-.42h1.29c.28,0,.42,.14,.42,.42v1.01Zm0-2.92c0,.28-.14,.42-.42,.42h-1.29c-.28,0-.42-.14-.42-.42v-.76c0-.28,.14-.42,.42-.42h1.29c.28,0,.42,.14,.42,.42v.76Z"/>
    </g>
    <g>
      <path class="cls-1" d="M279.76,21.47c-.24-.63-.84-1-1.45-1-.26,0-.53,.07-.77,.21l-1.72,.99-1.55-2.68,2.01-1.16c.77-.45,1-1.45,.52-2.2-5.69-8.85-15.62-14.72-26.93-14.72s-21.23,5.87-26.93,14.72c-.48,.75-.25,1.75,.52,2.2l2.01,1.16-1.55,2.68-1.72-.99c-.25-.14-.51-.21-.77-.21-.62,0-1.21,.37-1.45,1-1.36,3.55-2.11,7.41-2.11,11.44,0,16.57,12.59,30.19,28.73,31.83,.05,0,.11,0,.16,0,.85,0,1.56-.68,1.56-1.55v-2.16h3.1v2.16c0,.87,.71,1.55,1.56,1.55,.05,0,.11,0,.16,0,16.14-1.64,28.73-15.26,28.73-31.83,0-4.03-.75-7.89-2.11-11.44Zm-26.77,41.78s-.06-.02-.06-.05v-3.66h-6.1v3.66s-.03,.05-.07,.05h0c-15.61-1.59-27.38-14.63-27.38-30.34,0-3.75,.68-7.42,2.02-10.9,0-.02,.03-.03,.05-.03,0,0,.02,0,.03,0l1.72,.99,1.3,.75,.75-1.3,1.55-2.68,.75-1.3-1.3-.75-2.03-1.19s0-.05,.01-.06c5.65-8.78,15.24-14.03,25.66-14.03s20.01,5.24,25.66,14.03c0,0,.02,.03,0,.09l-2.01,1.16-1.3,.75,.75,1.3,1.55,2.68,.75,1.3,1.3-.75,1.74-1s.04,0,.05,.04c1.34,3.49,2.02,7.15,2.02,10.9,0,15.71-11.77,28.75-27.39,30.34Z"/>
      <path class="cls-1" d="M244.73,31.56h-5.86v-5.96h8.6v-1.06h-9.76v8.07h7.14c1.46,0,2.19,.72,2.19,2.16v3.12c0,1.44-.73,2.16-2.19,2.16h-7.38v.46l.77,.6h6.49c2.31,0,3.46-1.15,3.46-3.46v-2.64c0-2.31-1.15-3.46-3.46-3.46Z"/>
      <path class="cls-1" d="M258.82,31.56h-5.86v-3.05c0-1.94,.97-2.91,2.91-2.91h5.45v-.46l-.77-.6h-4.59c-2.77,0-4.16,1.39-4.16,4.16v8.96c0,2.31,1.15,3.46,3.46,3.46h3.56c2.31,0,3.46-1.15,3.46-3.46v-2.64c0-2.31-1.15-3.46-3.46-3.46Zm2.31,6.34c0,1.44-.73,2.16-2.19,2.16h-3.8c-1.46,0-2.19-.72-2.19-2.16v-5.29h5.98c1.46,0,2.19,.72,2.19,2.16v3.12Z"/>
      <path class="cls-1" d="M265.18,20.19c-1.15,0-2.07,.93-2.07,2.07s.93,2.07,2.07,2.07,2.07-.93,2.07-2.07-.93-2.07-2.07-2.07Zm0,3.4c-.73,0-1.32-.59-1.32-1.32s.59-1.32,1.32-1.32,1.32,.59,1.32,1.32-.59,1.32-1.32,1.32Z"/>
    </g>
    <g>
      <path class="cls-1" d="M709.48,.29h-174.38c-4.61,0-8.37,3.75-8.37,8.37V54.69c0,4.61,3.75,8.37,8.37,8.37h174.38c15.29,0,27.73-12.44,27.73-27.73v-7.3c0-15.29-12.44-27.73-27.73-27.73Zm26.73,35.04c0,14.74-11.99,26.73-26.73,26.73h-174.38c-4.06,0-7.37-3.3-7.37-7.37V8.65c0-4.06,3.3-7.37,7.37-7.37h174.38c14.74,0,26.73,11.99,26.73,26.73v7.3Z"/>
      <path class="cls-1" d="M553.44,24.44c-.45,.08-.86,.27-1.22,.57-.37,.31-.59,.62-.68,1.01v11.23c0,.54,.35,1.01,1.05,1.39l.21,.12,8.57-14.31h-7.93Zm7.05,.5l-7.86,13.13c-.39-.26-.58-.53-.58-.83v-11.17c.05-.22,.22-.45,.5-.69,.28-.24,.6-.39,.96-.45h6.99Z"/>
      <path class="cls-1" d="M572.3,24.6l-.19-.07-8.71,14.39h8.39c.45-.08,.87-.28,1.26-.59,.42-.34,.63-.7,.63-1.09v-11.3c-.21-.62-.67-1.07-1.39-1.33Zm.89,12.64c0,.23-.15,.46-.44,.7-.32,.26-.67,.42-.99,.48h-7.47l8.03-13.27c.45,.21,.74,.5,.87,.9v11.19Z"/>
      <path class="cls-1" d="M581.01,17c-.8-.73-1.75-1.31-2.81-1.71-1.06-.4-2.18-.6-3.33-.6h-24.5c-1.15,0-2.27,.2-3.33,.6-1.06,.4-2.01,.98-2.81,1.71-.8,.73-1.46,1.63-1.95,2.65-.49,1.03-.74,2.21-.74,3.5v17.05c0,1.29,.25,2.47,.74,3.5,.49,1.03,1.14,1.92,1.95,2.65,.8,.73,1.75,1.31,2.81,1.71,1.06,.4,2.18,.6,3.33,.6h24.5c1.15,0,2.27-.2,3.33-.6,1.06-.4,2.01-.98,2.81-1.71,.8-.73,1.46-1.63,1.95-2.65,.49-1.03,.74-2.21,.74-3.5V23.15c0-1.29-.25-2.47-.74-3.5-.49-1.03-1.14-1.92-1.95-2.65Zm2.18,23.2c0,1.22-.23,2.32-.69,3.29-.46,.97-1.08,1.81-1.83,2.5-.76,.69-1.65,1.23-2.65,1.61-1,.38-2.06,.57-3.15,.57h-24.5c-1.09,0-2.15-.19-3.15-.57-1-.38-1.89-.92-2.65-1.61-.76-.69-1.37-1.53-1.83-2.5-.46-.96-.69-2.07-.69-3.29V23.15c0-1.22,.23-2.32,.69-3.29,.46-.97,1.08-1.81,1.83-2.5,.76-.69,1.65-1.23,2.65-1.61,1.01-.38,2.07-.57,3.15-.57h24.5c1.08,0,2.15,.19,3.15,.57,1,.38,1.89,.92,2.65,1.61,.75,.69,1.37,1.53,1.83,2.5,.46,.97,.69,2.07,.69,3.29v17.05Z"/>
      <path class="cls-1" d="M616.63,36.33h-19.22s-.08,0-.08,0c-.61,.21-.94,.64-.94,1.26,0,.25,.07,.5,.21,.76,.15,.29,.43,.48,.86,.57h19.09c.38-.09,.65-.28,.8-.57,.14-.26,.21-.51,.21-.76,0-.62-.32-1.05-.93-1.26Zm.29,1.78c-.08,.16-.24,.26-.42,.3h-18.98c-.23-.05-.39-.15-.47-.3-.1-.18-.15-.36-.15-.52,0-.39,.17-.63,.56-.77h19.05c.39,.14,.56,.38,.56,.77,0,.16-.05,.34-.15,.52Z"/>
      <path class="cls-1" d="M597.4,27.02h.06s19.1,0,19.1,0c.66-.16,1.01-.6,1-1.29-.04-.29-.1-.55-.2-.76-.12-.26-.37-.44-.81-.53h-19.19c-.39,.09-.64,.27-.76,.53-.1,.21-.16,.47-.2,.79,0,.66,.35,1.1,1.01,1.26Zm-.35-1.85c.05-.11,.19-.19,.36-.24h19.08c.22,.04,.36,.13,.41,.24,.07,.16,.13,.37,.16,.59,0,.43-.19,.67-.57,.77h-19c-.41-.11-.6-.35-.6-.74,.03-.24,.08-.45,.16-.62Z"/>
      <path class="cls-1" d="M624.88,17c-.8-.73-1.75-1.31-2.81-1.71-1.06-.4-2.18-.6-3.33-.6h-23.53c-1.15,0-2.27,.2-3.33,.6-1.06,.4-2.01,.98-2.81,1.71s-1.46,1.62-1.95,2.65h0c-.49,1.03-.74,2.21-.74,3.5v4.19c0,.33,.06,.72,.19,1.17,.12,.44,.28,.87,.47,1.29,.2,.43,.44,.83,.72,1.19,.2,.27,.42,.5,.64,.68-.28,.21-.53,.46-.74,.75-.29,.37-.52,.78-.7,1.2-.17,.41-.31,.84-.42,1.26-.11,.43-.16,.8-.16,1.13v4.18c0,1.29,.25,2.47,.74,3.5,.49,1.03,1.14,1.92,1.95,2.65,.8,.73,1.75,1.31,2.81,1.71,1.06,.4,2.18,.6,3.33,.6h23.53c1.15,0,2.27-.2,3.33-.6,1.06-.4,2.01-.98,2.81-1.71,.8-.73,1.46-1.63,1.95-2.65,.49-1.03,.74-2.21,.74-3.5v-4.18c0-.33-.05-.7-.16-1.13-.1-.42-.25-.84-.42-1.26-.18-.43-.42-.83-.73-1.21-.23-.28-.47-.52-.72-.73,.23-.19,.45-.42,.65-.69,.28-.37,.52-.77,.72-1.19,.19-.42,.35-.85,.47-1.29,.12-.45,.19-.84,.19-1.16v-4.19c0-1.29-.25-2.47-.74-3.5-.49-1.03-1.14-1.92-1.95-2.65Zm2.18,10.34c0,.28-.06,.63-.17,1.03-.12,.41-.27,.82-.45,1.21-.18,.39-.4,.76-.66,1.1-.25,.33-.53,.6-.81,.79l-.3,.2,.3,.21c.32,.22,.62,.51,.89,.84,.27,.34,.49,.7,.65,1.09,.16,.39,.3,.79,.4,1.19,.1,.39,.15,.73,.15,1.01v4.18c0,1.22-.23,2.32-.69,3.29-.46,.97-1.08,1.81-1.83,2.5-.75,.69-1.65,1.23-2.65,1.61-1,.38-2.06,.57-3.15,.57h-23.53c-1.09,0-2.15-.19-3.15-.57-1-.38-1.89-.92-2.65-1.61-.75-.69-1.37-1.53-1.83-2.5-.46-.96-.69-2.07-.69-3.29v-4.18c0-.28,.05-.62,.15-1.01,.1-.4,.23-.8,.4-1.19,.16-.38,.37-.75,.63-1.09,.25-.33,.56-.61,.91-.83l.32-.21-.32-.21c-.28-.19-.56-.45-.81-.79-.26-.34-.48-.71-.66-1.1-.18-.39-.33-.8-.45-1.21-.11-.4-.17-.74-.17-1.03v-4.19c0-1.21,.23-2.32,.69-3.29,.46-.97,1.08-1.81,1.83-2.5,.76-.69,1.65-1.23,2.65-1.61,1.01-.38,2.07-.57,3.15-.57h23.53c1.08,0,2.15,.19,3.15,.57,1,.38,1.9,.92,2.65,1.61,.75,.69,1.37,1.53,1.83,2.5,.46,.97,.69,2.07,.69,3.29v4.19Z"/>
      <path class="cls-1" d="M718.2,13.64c-.5-.32-1.17-.17-1.47,.35l-.78,1.35-1.8-1.04,.66-1.15c.1-.16,.14-.34,.14-.52,0-.41-.25-.81-.67-.97-2.38-.91-4.96-1.42-7.66-1.42-11.1,0-20.22,8.43-21.32,19.24,0,.04,0,.07,0,.11,0,.57,.46,1.05,1.04,1.05h1.44v2.07h-1.44c-.58,0-1.04,.48-1.04,1.05,0,.04,0,.07,0,.11,1.1,10.81,10.22,19.24,21.32,19.24,2.7,0,5.28-.5,7.66-1.42,.42-.16,.67-.56,.67-.97,0-.18-.04-.35-.14-.52l-.66-1.15,1.8-1.04,.78,1.35c.3,.52,.97,.67,1.47,.35,5.93-3.81,9.86-10.46,9.86-18.04s-3.93-14.22-9.86-18.04Zm-.54,35.23s-.02,.01-.06,0l-.78-1.35-.5-.87-.87,.5-1.8,1.04-.87,.5,.5,.87,.67,1.16s0,.03-.02,.04c-2.33,.9-4.79,1.35-7.3,1.35-10.52,0-19.26-7.88-20.32-18.35,0-.02,.01-.04,.03-.04h2.45v-4.08h-2.45s-.03-.02-.03-.05h0c1.06-10.46,9.8-18.34,20.32-18.34,2.51,0,4.97,.45,7.3,1.35,.02,0,.02,.02,.02,.03,0,0,0,.01,0,.02l-.66,1.15-.5,.87,.87,.5,1.8,1.04,.87,.5,.5-.87,.8-1.36s.04,0,.04,0c5.88,3.78,9.4,10.21,9.4,17.19s-3.51,13.41-9.4,17.19Z"/>
      <path class="cls-1" d="M696.56,29.66c-.13,.05-.25,.12-.34,.2-.1,.09-.18,.19-.24,.32-.06,.12-.09,.26-.09,.42v.64c0,.16,.03,.29,.09,.42,.06,.12,.14,.23,.24,.32,.1,.09,.21,.16,.34,.2,.13,.05,.27,.07,.41,.07h2.54c.07,.02,.11,.06,.11,.13,0,.03-.01,.05-.03,.08-.01,.03-.04,.05-.08,.06h-3.62v1.2h3.91c.14,0,.28-.02,.41-.07,.13-.05,.25-.12,.34-.2,.1-.09,.18-.19,.24-.32,.06-.12,.09-.26,.09-.42v-.64c0-.16-.03-.29-.09-.42-.06-.12-.14-.23-.24-.32-.1-.09-.21-.16-.34-.2-.13-.05-.27-.07-.41-.07h-2.54c-.07-.02-.11-.06-.11-.13,0-.04,.01-.07,.03-.09,.01-.02,.04-.04,.08-.04h3.62v-1.2h-3.91c-.14,0-.28,.02-.41,.07Z"/>
      <path class="cls-1" d="M705.23,31.05h-2.35s-.06-.02-.07-.04c0-.02-.02-.04-.04-.07v-1.35h-1.28v1.64c0,.16,.03,.29,.09,.42,.06,.12,.14,.23,.24,.32,.1,.09,.21,.16,.34,.2,.13,.05,.27,.07,.41,.07h2.63v.15c0,.06-.04,.1-.11,.13h-3.61v1.2h3.91c.14,0,.28-.02,.41-.07,.13-.05,.25-.12,.34-.2,.1-.09,.18-.19,.24-.32,.06-.12,.09-.26,.09-.42v-3.11h-1.26v1.46Z"/>
      <path class="cls-1" d="M710.99,31.88l-2.6-2.04c-.23-.17-.38-.26-.46-.26h-.44s-.06,.02-.1,.05c-.04,.03-.08,.07-.12,.12-.04,.05-.07,.1-.1,.15-.03,.05-.04,.1-.04,.14v3.67h1.26v-2.28l2.6,2.03c.11,.09,.2,.16,.28,.2,.07,.04,.13,.06,.18,.06h.44s.06-.02,.1-.05c.04-.04,.08-.08,.12-.13,.04-.05,.07-.1,.1-.15,.03-.05,.04-.1,.04-.13v-3.67h-1.26v2.3Z"/>
      <path class="cls-1" d="M713.55,29.66c-.13,.05-.25,.12-.34,.2-.1,.09-.18,.19-.24,.32-.06,.12-.09,.26-.09,.42v2.1c0,.16,.03,.29,.09,.42,.06,.12,.14,.23,.24,.32,.1,.09,.21,.16,.34,.2,.13,.05,.27,.07,.41,.07h3.91v-1.2h-3.5c-.06,0-.11-.02-.16-.06-.05-.04-.07-.08-.07-.12v-1.37s.02-.08,.07-.12c.05-.04,.1-.06,.16-.06h3.5v-1.2h-3.91c-.14,0-.28,.02-.41,.07Z"/>
    </g>
    <g>
      <path class="cls-1" d="M471.66,24.32c1.28,0,1.82,.55,1.82,1.82v3.77c0,1.28-.55,1.82-1.82,1.82h-7.21v-7.41h7.21m0-.5h-7.71v8.41h7.71c1.55,0,2.32-.77,2.32-2.32v-3.77c0-1.55-.77-2.32-2.32-2.32h0Z"/>
      <path class="cls-1" d="M499.86,.72c4.95,0,8.98,4.03,8.98,8.98v7h-5.13v3.37h5.13v24.27h-5.13v3.37h5.13v7c0,4.95-4.03,8.98-8.98,8.98h-45.01c-4.95,0-8.98-4.03-8.98-8.98v-7h4.34v-3.37h-4.34V20.06h4.34v-3.37h-4.34v-7c0-4.95,4.03-8.98,8.98-8.98h45.01m-18.37,23.6h4.06v15.77h-5.18v2.76h12.82v-2.76h-4.71V21.55h-5.56l-.14,.11-1.12,.88-.19,.15v1.62m-19.98,18.53h2.94v-8.35h5.64l4.1,8.08,.14,.27h2.23l.14-.27,.26-.5,.12-.23-.12-.23-3.73-7.32c1.59-.4,3.19-1.57,3.19-4.69v-3.21c0-3.18-1.68-4.85-4.85-4.85h-10.06v21.3M499.86,.22h-45.01c-5.21,0-9.48,4.26-9.48,9.48v7.5h4.34v2.37h-4.34v25.27h4.34v2.37h-4.34v7.5c0,5.21,4.26,9.48,9.48,9.48h45.01c5.21,0,9.48-4.26,9.48-9.48v-7.5h-5.13v-2.37h5.13V19.56h-5.13v-2.37h5.13v-7.5c0-5.21-4.26-9.48-9.48-9.48h0Zm-17.87,23.6v-.88l1.12-.88h4.88v18.53h4.71v1.76h-11.82v-1.76h5.18V23.82h-4.06Zm-19.98,18.53V22.05h9.56c2.9,0,4.35,1.45,4.35,4.35v3.21c0,2.59-1.15,4.03-3.44,4.32l4.03,7.91-.26,.5h-1.62l-4.24-8.35h-6.44v8.35h-1.94Z"/>
    </g>
    <g>
      <path class="cls-1" d="M44.33,6.42l2.41-2.41C34.78-2.7,19.33-.99,9.17,9.17-.99,19.33-2.7,34.78,4.02,46.73l2.41-2.41C.92,33.74,2.6,20.35,11.48,11.48S33.74,.92,44.33,6.42Z"/>
      <path class="cls-1" d="M58.68,15.96l-2.41,2.41c5.51,10.59,3.82,23.97-5.05,32.85-8.88,8.88-22.26,10.56-32.85,5.05l-2.41,2.41c11.95,6.72,27.41,5.01,37.57-5.15,10.16-10.16,11.87-25.61,5.15-37.57Z"/>
      <path class="cls-1" d="M18.44,33.54v-3.88c0-1.12-.56-1.68-1.68-1.68h-1.58c-1.12,0-1.68,.56-1.68,1.68v1.14c0,1.12,.56,1.68,1.68,1.68h2.34v1.19c0,.7-.35,1.06-1.06,1.06h-2.64v.45l.49,.38h2.1c1.35,0,2.02-.67,2.02-2.02Zm-3.28-1.89c-.5,0-.75-.25-.75-.75v-1.34c0-.5,.25-.75,.75-.75h1.61c.5,0,.75,.25,.75,.75v2.09h-2.35Z"/>
      <path class="cls-1" d="M23.13,34.72h-3.39v.45l.49,.38h2.88c1.12,0,1.68-.56,1.68-1.68v-1.14c0-1.12-.56-1.68-1.68-1.68h-2.34v-2.24h3.7v-.84h-4.62v3.92h3.28c.5,0,.75,.25,.75,.75v1.34c0,.5-.25,.75-.75,.75Z"/>
      <polygon class="cls-1" points="26.48 36.11 29.57 27.7 28.82 27.42 25.72 35.84 26.48 36.11"/>
      <polygon class="cls-1" points="30.81 34.72 30.81 35.56 35.32 35.56 35.32 34.72 33.61 34.72 33.61 27.97 31.69 27.97 31.19 28.36 31.19 28.81 32.69 28.81 32.69 34.72 30.81 34.72"/>
      <path class="cls-1" d="M38.54,27.97c-1.12,0-1.68,.56-1.68,1.68v4.22c0,1.12,.56,1.68,1.68,1.68h1.58c1.12,0,1.68-.56,1.68-1.68v-4.22c0-1.12-.56-1.68-1.68-1.68h-1.58Zm2.34,1.58v4.42c0,.5-.25,.75-.75,.75h-1.61c-.5,0-.75-.25-.75-.75v-4.42c0-.5,.25-.75,.75-.75h1.61c.5,0,.75,.25,.75,.75Z"/>
      <path class="cls-1" d="M44.9,27.97c-1.12,0-1.68,.56-1.68,1.68v4.22c0,1.12,.56,1.68,1.68,1.68h1.58c1.12,0,1.68-.56,1.68-1.68v-4.22c0-1.12-.56-1.68-1.68-1.68h-1.58Zm2.34,1.58v4.42c0,.5-.25,.75-.75,.75h-1.61c-.5,0-.75-.25-.75-.75v-4.42c0-.5,.25-.75,.75-.75h1.61c.5,0,.75,.25,.75,.75Z"/>
    </g>
  </g>
</svg>