<?xml version="1.0" encoding="UTF-8"?>
<svg id="Layer_2" data-name="Layer 2" xmlns="http://www.w3.org/2000/svg" viewBox="0 0 463 270">
  <defs>
    <style>
      .cls-1 {
        fill: aqua;
      }
    </style>
  </defs>
  <g id="Layer_2-2" data-name="Layer 2">
    <g>
      <polygon class="cls-1" points="62.81 268.19 62.81 267.94 35.81 267.79 35.81 268.04 62.81 268.19"/>
      <path class="cls-1" d="M69.74,269.11v.43c0,.31,.15,.46,.46,.46h1.15c.31,0,.46-.15,.46-.46v-.43c0-.31-.15-.46-.46-.46h-1.15c-.31,0-.46,.15-.46,.46Zm1.64-.21c.14,0,.2,.07,.2,.2v.44c0,.14-.07,.2-.2,.2h-1.21c-.14,0-.2-.07-.2-.2v-.44c0-.14,.07-.2,.2-.2h1.21Z"/>
      <rect class="cls-1" x="71.48" y="267.92" width=".33" height=".3"/>
      <path class="cls-1" d="M70.58,266.6v.64h-.61v-1.01h-.23v1.26h1.07v-.89c0-.14,.07-.2,.2-.2h.37c.14,0,.2,.07,.2,.2v.92h.12l.11-.13v-.79c0-.31-.15-.46-.46-.46h-.31c-.31,0-.46,.15-.46,.46Z"/>
      <polygon class="cls-1" points="107.81 268.19 107.81 267.94 80.81 267.79 80.81 268.04 107.81 268.19"/>
      <path class="cls-1" d="M114.74,269.11v.7l.11,.13h.12v-.83c0-.14,.07-.2,.2-.2h.24c.11,0,.18,.05,.2,.15l.12,.61c.04,.22,.19,.33,.44,.33h.63v-1.35h-.23v1.1h-.42c-.11,0-.18-.05-.2-.15l-.12-.62c-.04-.22-.19-.33-.44-.33h-.2c-.31,0-.46,.15-.46,.46Z"/>
      <rect class="cls-1" x="116.48" y="267.92" width=".33" height=".3"/>
      <path class="cls-1" d="M115.58,266.6v.64h-.61v-1.01h-.23v1.26h1.07v-.89c0-.14,.07-.2,.2-.2h.37c.14,0,.2,.07,.2,.2v.92h.12l.11-.13v-.79c0-.31-.15-.46-.46-.46h-.31c-.31,0-.46,.15-.46,.46Z"/>
      <polygon class="cls-1" points="152.81 268.19 152.81 267.94 125.81 267.79 125.81 268.04 152.81 268.19"/>
      <polygon class="cls-1" points="161.2 268.9 161.2 269.72 159.8 269.06 159.74 269.1 159.74 269.31 161.22 270 161.43 270 161.43 268.9 161.81 268.9 161.81 268.65 160.52 268.65 160.52 268.9 161.2 268.9"/>
      <rect class="cls-1" x="161.48" y="267.92" width=".33" height=".3"/>
      <path class="cls-1" d="M160.58,266.6v.64h-.61v-1.01h-.23v1.26h1.07v-.89c0-.14,.07-.2,.2-.2h.37c.14,0,.2,.07,.2,.2v.92h.12l.11-.13v-.79c0-.31-.15-.46-.46-.46h-.31c-.31,0-.46,.15-.46,.46Z"/>
      <polygon class="cls-1" points="197.81 268.19 197.81 267.94 170.81 267.79 170.81 268.04 197.81 268.19"/>
      <polygon class="cls-1" points="9.19 265.31 9.19 268.07 9.39 268.07 9.39 265.5 10.39 267.64 10.61 267.64 11.61 265.5 11.61 268.07 11.81 268.07 11.81 265.31 11.51 265.31 10.5 267.45 9.49 265.31 9.19 265.31"/>
      <polygon class="cls-1" points="14.31 268.07 14.31 267.89 12.76 267.89 12.76 266.69 14.19 266.69 14.19 266.52 12.76 266.52 12.76 265.48 14.31 265.48 14.31 265.31 12.57 265.31 12.57 268.07 14.31 268.07"/>
      <path class="cls-1" d="M14.63,268.07h.15l.26-.78h1.36l.26,.78h.16l.03-.05-.95-2.71h-.36l-.96,2.71,.04,.05Zm.48-.95l.56-1.63h.12l.56,1.63h-1.23Z"/>
      <path class="cls-1" d="M17.21,265.88v.21c0,.32,.14,.5,.42,.56l.91,.18c.18,.04,.26,.15,.26,.35v.35c0,.24-.12,.36-.36,.36h-1.23v.08l.13,.1h1.08c.38,0,.58-.19,.58-.58v-.28c0-.32-.14-.5-.42-.56l-.91-.18c-.18-.04-.26-.15-.26-.35v-.28c0-.24,.12-.36,.36-.36h1.14v-.08l-.12-.1h-1c-.38,0-.58,.19-.58,.58Z"/>
      <path class="cls-1" d="M20.18,268.07h.87c.38,0,.58-.19,.58-.58v-2.18h-.19v2.22c0,.24-.12,.36-.36,.36h-.91c-.24,0-.36-.12-.36-.36v-2.22h-.19v2.18c0,.38,.19,.58,.58,.58Z"/>
      <path class="cls-1" d="M22.55,268.07v-1.18h.97l.6,1.18h.16l.03-.06-.57-1.12c.33-.03,.49-.22,.49-.57v-.43c0-.38-.19-.58-.58-.58h-1.28v2.76h.19Zm0-1.35v-1.23h1.12c.24,0,.36,.12,.36,.36v.51c0,.24-.12,.36-.36,.36h-1.12Z"/>
      <polygon class="cls-1" points="26.65 268.07 26.65 267.89 25.09 267.89 25.09 266.69 26.53 266.69 26.53 266.52 25.09 266.52 25.09 265.48 26.65 265.48 26.65 265.31 24.9 265.31 24.9 268.07 26.65 268.07"/>
      <path class="cls-1" d="M204.74,269.11v.43c0,.31,.15,.46,.46,.46h.22c.08,0,.14-.02,.19-.07l.11-.11,.1,.11c.05,.05,.12,.07,.2,.07h.33c.31,0,.46-.15,.46-.46v-.43c0-.31-.15-.46-.46-.46h-.33c-.08,0-.14,.03-.2,.08l-.1,.1-.11-.1s-.11-.08-.19-.08h-.22c-.31,0-.46,.15-.46,.46Zm1.64-.21c.14,0,.2,.07,.2,.2v.44c0,.14-.07,.2-.2,.2h-.34c-.14,0-.2-.07-.2-.2v-.44c0-.14,.07-.2,.2-.2h.34Zm-.97,0c.14,0,.2,.07,.2,.2v.44c0,.14-.07,.2-.2,.2h-.23c-.14,0-.2-.07-.2-.2v-.44c0-.14,.07-.2,.2-.2h.23Z"/>
      <rect class="cls-1" x="206.48" y="267.92" width=".33" height=".3"/>
      <path class="cls-1" d="M204.74,266.6v.7l.11,.13h.12v-.83c0-.14,.07-.2,.2-.2h.23c.14,0,.2,.07,.2,.2v.64h.23v-.64c0-.14,.07-.2,.2-.2h.34c.14,0,.2,.07,.2,.2v.86h.12l.11-.14v-.73c0-.31-.15-.46-.46-.46h-.33c-.08,0-.14,.03-.2,.08l-.1,.1-.11-.1s-.11-.08-.19-.08h-.22c-.31,0-.46,.15-.46,.46Z"/>
    </g>
    <g>
      <polygon class="cls-1" points="12.09 219.36 9.19 219.36 9.19 219.62 12.09 219.62 12.09 222.51 12.34 222.51 12.34 219.62 15.24 219.62 15.24 219.36 12.34 219.36 12.34 216.47 12.09 216.47 12.09 219.36"/>
      <polygon class="cls-1" points="27.19 219.36 27.19 219.62 30.09 219.62 30.09 222.51 30.34 222.51 30.34 219.62 33.24 219.62 33.24 219.36 30.34 219.36 30.34 216.47 30.09 216.47 30.09 219.36 27.19 219.36"/>
      <polygon class="cls-1" points="153.19 219.36 153.19 219.62 156.09 219.62 156.09 222.51 156.34 222.51 156.34 219.62 159.24 219.62 159.24 219.36 156.34 219.36 156.34 216.47 156.09 216.47 156.09 219.36 153.19 219.36"/>
      <polygon class="cls-1" points="225.19 219.36 225.19 219.62 228.09 219.62 228.09 222.51 228.34 222.51 228.34 219.62 231.24 219.62 231.24 219.36 228.34 219.36 228.34 216.47 228.09 216.47 228.09 219.36 225.19 219.36"/>
    </g>
    <g>
      <path class="cls-1" d="M10.02,243h-.83v2.07h.83c.46,0,.69-.23,.69-.69v-.68c0-.46-.23-.69-.69-.69Zm.55,1.4c0,.36-.18,.54-.54,.54h-.69v-1.81h.69c.36,0,.54,.18,.54,.54v.73Z"/>
      <polygon class="cls-1" points="12.2 244.61 11.44 243 11.22 243 11.22 245.07 11.36 245.07 11.36 243.15 12.12 244.75 12.28 244.75 13.03 243.15 13.03 245.07 13.18 245.07 13.18 243 12.96 243 12.2 244.61"/>
      <path class="cls-1" d="M14.51,244.04h.58v.9h-.95c-.18,0-.27-.09-.27-.27v-1.27c0-.18,.09-.27,.27-.27h1.04v-.06l-.09-.08h-.93c-.29,0-.43,.14-.43,.43v1.21c0,.29,.14,.43,.43,.43h1.08v-1.16h-.72v.13Z"/>
      <polygon class="cls-1" points="81.34 243 81.19 243 81.19 245.07 82.41 245.07 82.41 244.94 81.34 244.94 81.34 243"/>
      <path class="cls-1" d="M83.17,243c-.29,0-.43,.14-.43,.43v1.21c0,.29,.14,.43,.43,.43h.87l.1-.08v-.06h-.98c-.18,0-.27-.09-.27-.27v-1.27c0-.18,.09-.27,.27-.27h.98v-.06l-.1-.08h-.87Z"/>
      <polygon class="cls-1" points="85.95 243.04 85.93 243 85.8 243 84.72 244.21 84.72 243 84.58 243 84.58 245.07 84.72 245.07 84.72 244.4 85.12 243.96 85.86 245.07 86 245.07 86.01 245.03 85.22 243.85 85.95 243.04"/>
      <path class="cls-1" d="M226.59,243.76v-.32c0-.29-.14-.43-.43-.43h-.96v2.07h.14v-.88h.73l.45,.88h.12l.02-.04-.43-.84c.24-.02,.37-.16,.37-.43Zm-1.25,.3v-.92h.84c.18,0,.27,.09,.27,.27v.38c0,.18-.09,.27-.27,.27h-.84Z"/>
      <polygon class="cls-1" points="227.8 243 227.33 243 227.23 243.08 227.23 243.13 227.66 243.13 227.66 244.94 227.11 244.94 227.11 245.07 228.3 245.07 228.3 244.94 227.8 244.94 227.8 243"/>
      <path class="cls-1" d="M154.02,243h-.83v2.07h.83c.46,0,.69-.23,.69-.69v-.68c0-.46-.23-.69-.69-.69Zm.55,1.4c0,.36-.18,.54-.54,.54h-.69v-1.81h.69c.36,0,.54,.18,.54,.54v.73Z"/>
      <path class="cls-1" d="M156.04,243h-.83v2.07h.83c.46,0,.69-.23,.69-.69v-.68c0-.46-.23-.69-.69-.69Zm.55,1.4c0,.36-.18,.54-.54,.54h-.69v-1.81h.69c.36,0,.54,.18,.54,.54v.73Z"/>
      <path class="cls-1" d="M158.64,243.76v-.32c0-.29-.14-.43-.43-.43h-.96v2.07h.14v-.88h.73l.45,.88h.12l.02-.04-.43-.84c.24-.02,.37-.16,.37-.43Zm-1.25,.3v-.92h.84c.18,0,.27,.09,.27,.27v.38c0,.18-.09,.27-.27,.27h-.84Z"/>
      <polygon class="cls-1" points="298.56 243.04 298.55 243 298.42 243 297.34 244.21 297.34 243 297.19 243 297.19 245.07 297.34 245.07 297.34 244.4 297.74 243.96 298.48 245.07 298.61 245.07 298.63 245.03 297.83 243.85 298.56 243.04"/>
      <path class="cls-1" d="M300.25,243.67v-.23c0-.29-.14-.43-.43-.43h-.72l-.1,.08v.06h.83c.18,0,.27,.09,.27,.27v.23c0,.18-.09,.27-.27,.27h-.64v.13h.64c.18,0,.27,.09,.27,.27v.36c0,.18-.09,.27-.27,.27h-.86v.06l.1,.08h.75c.29,0,.43-.14,.43-.43v-.37c0-.08-.03-.15-.08-.2l-.11-.1,.11-.11s.08-.12,.08-.2Z"/>
    </g>
    <g>
      <path class="cls-1" d="M274.69,99.34c-2.55,0-4.62,2.08-4.62,4.62,0,2.41-1.96,4.38-4.38,4.38h-27c-2.41,0-4.38-1.96-4.38-4.38v-29.64c0-1.17,.46-2.27,1.28-3.09l24.36-24.36c.83-.83,1.92-1.28,3.09-1.28h33.43c.06,.34,.35,.61,.71,.61,.4,0,.73-.33,.73-.73s-.33-.73-.73-.73c-.36,0-.64,.26-.71,.61h-33.43c-1.24,0-2.4,.48-3.27,1.35l-24.36,24.36c-.87,.87-1.35,2.04-1.35,3.27v29.64c0,2.55,2.08,4.62,4.62,4.62h27c2.55,0,4.62-2.08,4.62-4.62,0-2.41,1.96-4.38,4.38-4.38h166.5v-.25h-166.5Z"/>
      <path class="cls-1" d="M297.2,42.88c1.43,0,2.58,1.16,2.58,2.58s-1.16,2.58-2.58,2.58c-1.08,0-2-.66-2.39-1.6h-.26c.4,1.07,1.43,1.85,2.65,1.85,1.56,0,2.83-1.27,2.83-2.83s-1.27-2.83-2.83-2.83c-1.2,0-2.22,.75-2.63,1.8h.27c.4-.91,1.31-1.55,2.37-1.55Z"/>
      <rect class="cls-1" x="333.02" y="101.6" width=".49" height=".87"/>
      <rect class="cls-1" x="369.19" y="101.6" width=".49" height=".87"/>
      <rect class="cls-1" x="404.71" y="101.6" width=".49" height=".87"/>
      <rect class="cls-1" x="440.71" y="101.6" width=".49" height=".87"/>
      <rect class="cls-1" x="296.71" y="101.6" width=".49" height=".87"/>
      <path class="cls-1" d="M298.36,96.49v-.22c0-.29-.14-.43-.43-.43h-.93v2.07h.99c.29,0,.43-.14,.43-.43v-.34c0-.11-.03-.19-.1-.24l-.13-.11,.1-.13s.06-.11,.06-.17Zm-.08,.65v.36c0,.18-.09,.27-.27,.27h-.87v-.9h.87c.18,0,.27,.09,.27,.27Zm-.06-.67c0,.18-.09,.27-.27,.27h-.81v-.77h.81c.18,0,.27,.09,.27,.27v.23Z"/>
      <polygon class="cls-1" points="299.86 95.84 299.76 95.91 299.76 95.97 300.18 95.97 300.18 97.77 299.64 97.77 299.64 97.91 300.83 97.91 300.83 97.77 300.33 97.77 300.33 95.84 299.86 95.84"/>
      <path class="cls-1" d="M301.72,97.91h.44c.29,0,.43-.14,.43-.43v-1.21c0-.29-.14-.43-.43-.43h-.44c-.29,0-.43,.14-.43,.43v1.21c0,.29,.14,.43,.43,.43Zm-.29-1.67c0-.18,.09-.27,.27-.27h.47c.18,0,.27,.09,.27,.27v1.27c0,.18-.09,.27-.27,.27h-.47c-.18,0-.27-.09-.27-.27v-1.27Z"/>
      <path class="cls-1" d="M303.45,97.91h.44c.29,0,.43-.14,.43-.43v-1.21c0-.29-.14-.43-.43-.43h-.44c-.29,0-.43,.14-.43,.43v1.21c0,.29,.14,.43,.43,.43Zm-.29-1.67c0-.18,.09-.27,.27-.27h.47c.18,0,.27,.09,.27,.27v1.27c0,.18-.09,.27-.27,.27h-.47c-.18,0-.27-.09-.27-.27v-1.27Z"/>
      <path class="cls-1" d="M406.42,97.47v-.34c0-.11-.03-.19-.1-.24l-.13-.11,.1-.13s.06-.11,.06-.17v-.22c0-.29-.14-.43-.43-.43h-.93v2.07h.99c.29,0,.43-.14,.43-.43Zm-1.28-1.51h.81c.18,0,.27,.09,.27,.27v.23c0,.18-.09,.27-.27,.27h-.81v-.77Zm0,.91h.87c.18,0,.27,.09,.27,.27v.36c0,.18-.09,.27-.27,.27h-.87v-.9Z"/>
      <path class="cls-1" d="M408.43,97.91c.29,0,.43-.14,.43-.43v-.37c0-.08-.03-.15-.08-.2l-.11-.1,.11-.11s.08-.12,.08-.2v-.23c0-.29-.14-.43-.43-.43h-.72l-.1,.08v.06h.83c.18,0,.27,.09,.27,.27v.23c0,.18-.09,.27-.27,.27h-.64v.13h.64c.18,0,.27,.09,.27,.27v.36c0,.18-.09,.27-.27,.27h-.86v.06l.1,.08h.75Z"/>
      <path class="cls-1" d="M410.6,97.77h-1.16v-.5c0-.15,.07-.24,.2-.26l.65-.13c.21-.04,.31-.18,.31-.42v-.19c0-.29-.14-.43-.43-.43h-.72l-.1,.08v.06h.83c.18,0,.27,.09,.27,.27v.25c0,.15-.07,.24-.2,.26l-.65,.13c-.21,.04-.31,.18-.31,.42v.6h1.31v-.13Z"/>
      <path class="cls-1" d="M411.45,97.91h.44c.29,0,.43-.14,.43-.43v-1.21c0-.29-.14-.43-.43-.43h-.44c-.29,0-.43,.14-.43,.43v1.21c0,.29,.14,.43,.43,.43Zm-.29-1.67c0-.18,.09-.27,.27-.27h.47c.18,0,.27,.09,.27,.27v1.27c0,.18-.09,.27-.27,.27h-.47c-.18,0-.27-.09-.27-.27v-1.27Z"/>
      <path class="cls-1" d="M233.76,67.38l-.97-.97c-.65-.65-1.31-.65-1.96,0l-1.17,1.17,2.93,2.93,1.17-1.17c.65-.65,.65-1.3,0-1.96Zm-.17,1.76l-.98,.98-2.55-2.55,.97-.98c.51-.51,1.01-.5,1.52,0l1.04,1.04c.51,.51,.51,1.01,0,1.52Z"/>
      <rect class="cls-1" x="233.96" y="64" width=".29" height="4.14" transform="translate(21.83 184.85) rotate(-44.99)"/>
      <path class="cls-1" d="M235.82,66.06c.41,.41,.81,.41,1.22,0l1.53-1.53-1.65-1.65-1.02,1.02,.19,.19,.81-.81,1.27,1.27-1.35,1.35c-.26,.26-.51,.26-.77,0l-1.79-1.79c-.25-.25-.25-.51,0-.77l1.47-1.47-.08-.08-.24,.03-1.32,1.32c-.41,.41-.41,.82,0,1.22l1.71,1.71Z"/>
      <rect class="cls-1" x="237.79" y="60.17" width=".29" height="4.14" transform="translate(25.7 186.51) rotate(-45.01)"/>
      <polygon class="cls-1" points="238.29 59.33 241.03 62.07 241.23 61.86 238.49 59.12 239.52 58.1 239.33 57.91 237.08 60.17 237.26 60.35 238.29 59.33"/>
      <path class="cls-1" d="M242.28,60.82l.16-.16-.54-1.1,1.44-1.44,1.1,.54,.17-.17-.02-.09-3.88-1.86-.38,.38,1.86,3.89,.09,.02Zm-1.64-3.84l.12-.12,2.32,1.14-1.3,1.3-1.14-2.32Z"/>
      <polygon class="cls-1" points="246.86 56.24 246.67 56.05 245.15 57.58 242.41 54.84 242.21 55.04 245.13 57.97 246.86 56.24"/>
      <path class="cls-1" d="M247.73,54.15c.41,.41,.82,.41,1.22,0l1.53-1.53-1.65-1.65-1.02,1.02,.19,.19,.82-.82,1.27,1.27-1.35,1.35c-.26,.26-.51,.26-.77,0l-1.79-1.79c-.26-.26-.25-.51,0-.77l1.47-1.47-.08-.08-.24,.03-1.32,1.31c-.41,.41-.41,.81,0,1.22l1.71,1.71Z"/>
      <path class="cls-1" d="M251.79,51.31l.92-.92c.41-.41,.41-.81,0-1.22l-2.32-2.32-.2,.2,2.36,2.36c.25,.25,.25,.51,0,.76l-.97,.97c-.26,.26-.51,.26-.77,0l-2.36-2.36-.2,.2,2.32,2.32c.41,.41,.81,.41,1.22,0Z"/>
      <polygon class="cls-1" points="252.08 45.53 254.83 48.27 255.03 48.07 252.29 45.33 253.32 44.3 253.13 44.11 250.87 46.37 251.06 46.56 252.08 45.53"/>
      <path class="cls-1" d="M254.34,44.57c.34,.34,.68,.39,1.04,.15l1.16-.77c.22-.15,.44-.12,.65,.09l.37,.37c.25,.25,.25,.51,0,.76l-1.3,1.3,.08,.08,.24-.03,1.14-1.14c.41-.41,.41-.81,0-1.22l-.29-.29c-.34-.34-.68-.39-1.04-.15l-1.15,.77c-.22,.15-.44,.12-.65-.09l-.3-.3c-.25-.25-.25-.51,0-.77l1.21-1.21-.08-.08-.24,.03-1.06,1.06c-.41,.41-.41,.81,0,1.22l.22,.22Z"/>
    </g>
    <g>
      <path class="cls-1" d="M211.34,25.17h-10.98c-1.22,0-2.22,.96-2.28,2.17h-2.55v-.22h-.61v.22h-1.39v-.22h-.61v.22h-31.27c-4.74,0-8.59,3.85-8.59,8.59v1.06c0,4.6-3.74,8.34-8.34,8.34h-51.02c-2.23,0-4.32-.87-5.9-2.44l-15.52-15.52-.18,.18,15.52,15.52c1.62,1.62,3.78,2.52,6.08,2.52h51.02c4.74,0,8.59-3.85,8.59-8.59v-1.06c0-4.6,3.74-8.34,8.34-8.34h31.27v.18h.61v-.18h1.39v.18h.61v-.18h2.55c.07,1.21,1.06,2.17,2.28,2.17h10.98c1.27,0,2.29-1.03,2.29-2.29s-1.03-2.29-2.29-2.29Zm0,4.34h-10.98c-1.13,0-2.04-.92-2.04-2.04s.92-2.04,2.04-2.04h10.98c1.13,0,2.04,.92,2.04,2.04s-.92,2.04-2.04,2.04Z"/>
      <path class="cls-1" d="M69.88,23.5l.24-.24c.22-.22,.22-.45,0-.67l-.7-.7-1.46,1.46,.22,.22,.56-.56,.36,.36-.28,.84,.18,.18,.08-.02,.25-.79c.18,.12,.37,.08,.55-.1Zm-.47-.2l-.48-.48,.51-.51,.48,.48c.08,.08,.08,.16,0,.24l-.27,.27c-.08,.08-.16,.08-.24,0Z"/>
      <path class="cls-1" d="M71.36,24.5c.22-.22,.22-.45,0-.67l-.3-.3c-.22-.22-.45-.22-.67,0l-.79,.79c-.22,.22-.22,.45,0,.67l.3,.3c.22,.22,.45,.22,.67,0l.79-.79Zm-1.27,.6l-.3-.3c-.08-.08-.08-.16,0-.24l.83-.83c.08-.08,.16-.08,.24,0l.3,.3c.08,.08,.08,.16,0,.24l-.83,.83c-.08,.08-.16,.08-.24,0Z"/>
      <polygon class="cls-1" points="72.58 25.05 72.19 24.66 71.99 24.63 71.88 24.74 72.16 25.03 71.09 26.1 70.74 25.75 70.54 25.94 71.43 26.83 71.62 26.64 71.31 26.32 72.58 25.05"/>
      <polygon class="cls-1" points="201.99 26.76 201.79 26.76 201.79 28.14 202.64 28.14 202.64 27.96 201.99 27.96 201.99 26.76"/>
      <rect class="cls-1" x="202.86" y="26.76" width=".2" height="1.38"/>
      <polygon class="cls-1" points="204.31 27.81 203.64 26.76 203.42 26.76 203.42 28.14 203.62 28.14 203.62 27.08 204.29 28.14 204.52 28.14 204.52 26.76 204.31 26.76 204.31 27.81"/>
      <polygon class="cls-1" points="205.87 26.8 205.85 26.76 205.66 26.76 205.07 27.42 205.07 26.76 204.87 26.76 204.87 28.14 205.07 28.14 205.07 27.69 205.27 27.47 205.71 28.14 205.9 28.14 205.92 28.1 205.4 27.33 205.87 26.8"/>
      <rect class="cls-1" x="206.63" y="26.76" width=".2" height="1.38"/>
      <path class="cls-1" d="M207.84,26.76h-.66v1.38h.2v-.49h.45c.21,0,.32-.1,.32-.31v-.26c0-.21-.11-.32-.32-.32Zm.11,.59c0,.08-.04,.11-.11,.11h-.45v-.52h.45c.08,0,.11,.04,.11,.11v.3Z"/>
      <polygon class="cls-1" points="209.11 27.1 208.82 27.97 208.79 27.97 208.5 27.1 208.33 27.1 208.31 27.13 208.66 28.14 208.96 28.14 209.3 27.13 209.28 27.1 209.11 27.1"/>
      <path class="cls-1" d="M210.06,27.31h-.4v-.2c0-.11,.06-.17,.17-.17h.46v-.1l-.1-.08h-.35c-.25,0-.38,.13-.38,.38v.69c0,.21,.11,.32,.32,.32h.28c.21,0,.32-.11,.32-.32v-.2c0-.21-.11-.32-.32-.32Zm.11,.53c0,.08-.04,.11-.11,.11h-.28c-.08,0-.11-.04-.11-.11v-.35h.39c.08,0,.11,.04,.11,.11v.24Z"/>
    </g>
    <g>
      <path class="cls-1" d="M1.02,36.48l-.68-.14c-.13-.03-.2-.11-.2-.26v-.21c0-.18,.09-.27,.27-.27h.86v-.06l-.09-.08H.43c-.29,0-.43,.14-.43,.43v.16c0,.24,.1,.38,.31,.42l.68,.14c.13,.03,.2,.11,.2,.26v.26c0,.18-.09,.27-.27,.27H0v.06l.1,.08H.9c.29,0,.43-.14,.43-.43v-.21c0-.24-.1-.38-.31-.42Z"/>
      <rect class="cls-1" x="1.81" y="37.28" width=".2" height=".26"/>
      <polygon class="cls-1" points="3.65 36.97 2.65 36.97 3.36 35.51 3.33 35.46 3.22 35.46 2.49 36.98 2.49 37.1 3.65 37.1 3.65 37.53 3.8 37.53 3.8 36.24 3.65 36.24 3.65 36.97"/>
      <path class="cls-1" d="M5.1,36.34h-.73v-.74h1.07v-.13h-1.22v1.01h.89c.18,0,.27,.09,.27,.27v.39c0,.18-.09,.27-.27,.27h-.92v.06l.1,.08h.81c.29,0,.43-.14,.43-.43v-.33c0-.29-.14-.43-.43-.43Z"/>
      <path class="cls-1" d="M259.3,18.34c-4.55,0-8.83-1.77-12.05-4.99l-7.94-7.94c-3.27-3.27-7.61-5.06-12.23-5.06h-35.66v-.34h-18.48V.34h-1.52v-.34h-.94V.34h-29.06v-.34h-.94V.34H22.76C15.21,.34,9.07,6.48,9.07,14.03V30.69c0,1.17,.52,2.26,1.44,2.99,.85,.68,1.34,1.7,1.34,2.79s-.49,2.11-1.36,2.81c-.9,.72-1.42,1.79-1.43,2.95v24.13h-.21v3.26h.21v1.29h-.21v.71h.21v.89h.25v-.89h.21v-.71h-.21v-1.29h.21v-3.26h-.21v-24.13c.01-1.08,.5-2.08,1.36-2.77,.91-.73,1.44-1.82,1.44-2.99s-.52-2.26-1.44-2.99c-.85-.68-1.34-1.7-1.34-2.79V14.03C9.32,6.62,15.35,.59,22.76,.59h117.73v.34h.94v-.34h29.06v.34h.94v-.34h1.52v.34h18.48v-.34h35.66c4.55,0,8.83,1.77,12.05,4.99l7.94,7.94c3.27,3.27,7.61,5.07,12.23,5.07h91.89v-.25h-91.89Z"/>
      <path class="cls-1" d="M9.85,36.49c0-.78-.64-1.42-1.42-1.42s-1.42,.64-1.42,1.42,.64,1.42,1.42,1.42,1.42-.64,1.42-1.42Zm-1.42,1.17c-.65,0-1.17-.53-1.17-1.17s.53-1.17,1.17-1.17,1.17,.53,1.17,1.17-.53,1.17-1.17,1.17Z"/>
      <path class="cls-1" d="M28.53,35.4v-.65h-.19v.65c-.53,.05-.95,.47-.99,.99h-.65v.19h.65c.05,.53,.47,.94,.99,.99v.65h.19v-.65c.53-.05,.94-.46,.99-.99h.65v-.19h-.65c-.05-.53-.46-.95-.99-.99Zm-.19,1.98c-.42-.05-.74-.37-.79-.79h.79v.79Zm0-.98h-.79c.05-.42,.37-.74,.79-.79v.79Zm.19,.98v-.79h.79c-.05,.42-.37,.74-.79,.79Zm0-.98v-.79c.42,.05,.74,.37,.79,.79h-.79Z"/>
    </g>
    <g>
      <path class="cls-1" d="M159.34,105.44l-3.12-3.12c-1.89-1.89-4.51-2.98-7.19-2.98h0l-124.89,.13v-.24H10.51v.26h-1.04s0-.26,0-.26h-.66v.71h.66v-.2h1.04s0,.2,0,.2h13.63v-.22l124.89-.13h0c2.61,0,5.17,1.06,7.01,2.9l3.12,3.12c1.92,1.92,4.47,2.98,7.19,2.98h40.84v-.25h-40.84c-2.65,0-5.14-1.03-7.01-2.9Z"/>
      <path class="cls-1" d="M10.94,97.65h.82c.29,0,.43-.14,.43-.43v-.38c0-.29-.14-.43-.43-.43h-.96v2.07h.14v-.82Zm0-1.12h.84c.18,0,.27,.09,.27,.27v.44c0,.18-.09,.27-.27,.27h-.84v-.98Z"/>
      <path class="cls-1" d="M13.47,98.47c.29,0,.43-.14,.43-.43v-.37c0-.08-.03-.15-.08-.2l-.11-.1,.11-.11s.08-.12,.08-.2v-.23c0-.29-.14-.43-.43-.43h-.72l-.1,.08v.06h.83c.18,0,.27,.09,.27,.27v.23c0,.18-.09,.27-.27,.27h-.64v.13h.64c.18,0,.27,.09,.27,.27v.36c0,.18-.09,.27-.27,.27h-.86v.06l.1,.08h.75Z"/>
      <path class="cls-1" d="M14.76,98.47h.44c.29,0,.43-.14,.43-.43v-.37c0-.08-.03-.15-.08-.2l-.11-.1,.11-.11s.08-.12,.08-.2v-.23c0-.29-.14-.43-.43-.43h-.44c-.29,0-.43,.14-.43,.43v.23c0,.08,.03,.15,.08,.2l.1,.11-.1,.1s-.08,.12-.08,.2v.37c0,.29,.14,.43,.43,.43Zm-.29-1.44v-.23c0-.18,.09-.27,.27-.27h.47c.18,0,.27,.09,.27,.27v.23c0,.18-.09,.27-.27,.27h-.47c-.18,0-.27-.09-.27-.27Zm0,.67c0-.18,.09-.27,.27-.27h.47c.18,0,.27,.09,.27,.27v.36c0,.18-.09,.27-.27,.27h-.47c-.18,0-.27-.09-.27-.27v-.36Z"/>
      <path class="cls-1" d="M16.5,98.47h.44c.29,0,.43-.14,.43-.43v-1.21c0-.29-.14-.43-.43-.43h-.44c-.29,0-.43,.14-.43,.43v1.21c0,.29,.14,.43,.43,.43Zm-.29-1.67c0-.18,.09-.27,.27-.27h.47c.18,0,.27,.09,.27,.27v1.27c0,.18-.09,.27-.27,.27h-.47c-.18,0-.27-.09-.27-.27v-1.27Z"/>
      <path class="cls-1" d="M212.22,108.35c-.06-.62-.55-1.11-1.17-1.16v-.76h-.23v.77c-.62,.06-1.11,.55-1.16,1.16h-.77v.23h.77c.05,.62,.54,1.11,1.16,1.16v.77h.23v-.76c.62-.05,1.11-.54,1.17-1.17h.76v-.23h-.76Zm-1.39,1.15c-.49-.06-.87-.44-.92-.93h.92v.93Zm0-1.15h-.92c.05-.49,.43-.87,.92-.93v.93Zm.23-.93c.49,.05,.87,.43,.93,.93h-.93v-.93Zm0,2.08v-.93h.93c-.05,.49-.44,.87-.93,.93Z"/>
    </g>
    <g>
      <path class="cls-1" d="M72.61,126.34H27.19v.25h45.42c4.67,0,8.46,3.79,8.46,8.46v14.86c0,2.26-.88,4.38-2.48,5.98l-12.97,12.97c-1.6,1.6-3.72,2.48-5.98,2.48H17.78c-4.67,0-8.46-3.79-8.46-8.46v-36.42h-.25v36.42c0,4.8,3.91,8.71,8.71,8.71H59.64c2.33,0,4.51-.91,6.16-2.55l12.97-12.97c1.64-1.65,2.55-3.83,2.55-6.16v-14.86c0-4.8-3.91-8.71-8.71-8.71Z"/>
      <path class="cls-1" d="M10.88,129.09h.68c.21,0,.37-.07,.48-.2l.21-.25,.25,.21c.1,.08,.21,.12,.35,.12h.44c.58,0,.86-.29,.86-.86v-1.87h-4.14v1.99c0,.58,.29,.86,.86,.86Zm1.46-2.56h1.55v1.61c0,.36-.18,.54-.54,.54h-.46c-.36,0-.55-.18-.55-.54v-1.61Zm-2.06,0h1.8v1.73c0,.36-.18,.54-.54,.54h-.72c-.36,0-.54-.18-.54-.54v-1.73Z"/>
      <polygon class="cls-1" points="10.28 130.36 14.15 130.36 14.15 130.07 10.01 130.07 10.01 132.51 10.28 132.51 10.28 130.36"/>
      <path class="cls-1" d="M10.28,135.97v-1.97c0-.36,.18-.55,.54-.55h2.53c.36,0,.54,.18,.54,.55v1.97h.11l.15-.19v-1.75c0-.58-.29-.86-.86-.86h-2.41c-.58,0-.86,.29-.86,.86v1.75l.15,.19h.11Z"/>
      <polygon class="cls-1" points="12.45 138.12 14.08 139.58 14.15 139.55 14.15 139.29 11.74 137.13 14.15 137.13 14.15 136.84 10.01 136.84 10.01 137.13 11.35 137.13 12.24 137.93 10.01 139.41 10.01 139.68 10.09 139.71 12.45 138.12"/>
      <path class="cls-1" d="M11.4,144.94h1.37c.92,0,1.39-.46,1.39-1.38v-1.65h-4.14v1.65c0,.92,.46,1.38,1.39,1.38Zm-1.12-2.74h3.61v1.38c0,.72-.36,1.07-1.07,1.07h-1.46c-.72,0-1.07-.36-1.07-1.07v-1.38Z"/>
      <path class="cls-1" d="M14.15,147.48v-.53l-4.06-1.43-.08,.05v.23l1.16,.4v2.04l-1.16,.4v.23l.08,.05,4.06-1.43Zm-2.71-1.19l2.45,.83v.17l-2.45,.83v-1.84Z"/>
      <polygon class="cls-1" points="13.89 152.07 14.15 152.07 14.15 148.88 13.89 148.88 13.89 150.33 10.01 150.33 10.01 150.62 13.89 150.62 13.89 152.07"/>
      <path class="cls-1" d="M14.15,154.01v-.53l-4.06-1.43-.08,.05v.23l1.16,.4v2.04l-1.16,.4v.23l.08,.05,4.06-1.43Zm-2.71-1.19l2.45,.83v.17l-2.45,.83v-1.84Z"/>
      <path class="cls-1" d="M72.99,135.47c0-.44-.36-.8-.8-.8s-.8,.36-.8,.8,.36,.8,.8,.8,.8-.36,.8-.8Z"/>
    </g>
    <g>
      <path class="cls-1" d="M179.38,74.35h1.18c.77,0,1.15-.38,1.15-1.15v-3.22c0-.77-.38-1.15-1.15-1.15h-1.18c-.77,0-1.15,.38-1.15,1.15v3.22c0,.77,.38,1.15,1.15,1.15Zm-.77-4.45c0-.48,.24-.72,.73-.72h1.26c.49,0,.73,.24,.73,.72v3.38c0,.48-.24,.72-.73,.72h-1.26c-.49,0-.73-.24-.73-.72v-3.38Z"/>
      <path class="cls-1" d="M186.33,74h-3.1v-1.33c0-.39,.18-.63,.54-.7l1.74-.35c.55-.11,.83-.49,.83-1.12v-.52c0-.77-.38-1.15-1.15-1.15h-1.92l-.26,.2v.15h2.22c.49,0,.73,.24,.73,.72v.67c0,.4-.18,.63-.54,.7l-1.74,.35c-.55,.11-.83,.49-.83,1.12v1.61h3.49v-.35Z"/>
      <path class="cls-1" d="M189.81,74.35c.77,0,1.15-.38,1.15-1.15v-.99c0-.21-.07-.39-.2-.52l-.28-.28,.28-.28c.13-.13,.2-.31,.2-.52v-.62c0-.77-.38-1.15-1.15-1.15h-1.92l-.26,.2v.15h2.22c.49,0,.73,.24,.73,.72v.62c0,.49-.24,.73-.73,.73h-1.7v.35h1.7c.49,0,.73,.24,.73,.72v.96c0,.48-.24,.72-.73,.72h-2.3v.15l.26,.2h2Z"/>
      <path class="cls-1" d="M206.01,45.34h-.03c-4.36,0-7.91,3.55-7.91,7.91v20.43c0,4.22-3.44,7.66-7.66,7.66h-11.43c-4.22,0-7.66-3.44-7.66-7.66v-10.21h-.25v10.21c0,4.36,3.55,7.91,7.91,7.91h11.43c4.36,0,7.91-3.55,7.91-7.91v-20.43c0-4.22,3.44-7.66,7.66-7.66h.03v1.15h2.38v-2.55h-2.38v1.15Zm.25,.25h.63v.2h.61v-.66h-.61v.2h-.63v-.9h1.88v2.05h-1.88v-.9Z"/>
      <rect class="cls-1" x="210.13" y="44.2" width=".37" height=".8"/>
      <rect class="cls-1" x="212.13" y="44.2" width=".37" height=".8"/>
      <rect class="cls-1" x="210.13" y="45.95" width=".37" height=".8"/>
    </g>
    <g>
      <path class="cls-1" d="M441.99,27.34h-33.4c-2.22,0-4.32,.87-5.89,2.44l-18.6,18.6c.05-.21-.01-.42-.22-.63l-2.02-2.02-.96,.96c-.34,.34-.34,.67,0,1.01l.81,.81c.34,.34,.68,.34,1.01,0l.81-.81,.24,.24c.22,.22,.22,.44,0,.66l-.85,.85,.06,.06-29.46,29.46c-1.53,1.53-3.55,2.37-5.71,2.37h-8.77v-.24h-2.36v.24h-3.48v.25h3.48v.24h2.36v-.24h8.77c2.22,0,4.32-.87,5.89-2.44l49.2-49.2c1.53-1.53,3.55-2.37,5.71-2.37h33.4c4.2,0,7.66,3.23,8.04,7.33h-1.38v3.09h3.09v-3.09h-1.46c-.38-4.24-3.95-7.58-8.29-7.58Zm-59.43,21.05c-.22,.22-.44,.22-.66,0l-.88-.88c-.22-.22-.22-.44,0-.66l.82-.82,1.54,1.54-.82,.82Zm68.94-13.21v2.59h-2.59v-2.59h1.14c.01,.16,.02,.33,.02,.49v.8h.25v-.8c0-.17-.02-.33-.02-.49h1.2Z"/>
      <path class="cls-1" d="M357.39,73.84l-.97-.97,.96-.97c.34-.34,.34-.68,0-1.02l-.45-.45c-.34-.34-.68-.34-1.02,0l-1.13,1.14,2.44,2.44,.17-.17Zm-2.29-2.29l.99-.99c.21-.21,.43-.21,.64,0l.52,.52c.21,.21,.22,.43,0,.64l-.99,.99-1.16-1.16Z"/>
      <path class="cls-1" d="M359.54,71.69l-1.59-1.58c0-.12,.04-.24,.16-.35l.45-.45-.07-.07-.17,.02-.34,.34c-.21,.21-.29,.42-.24,.63l1.63,1.63,.16-.16Z"/>
      <path class="cls-1" d="M360.11,70.11c.34,.34,.67,.34,1.01,0l.5-.5c.33-.33,.33-.67,0-1.01l-.81-.81c-.34-.34-.67-.34-1.01,0l-.49,.5c-.34,.34-.34,.67,0,1.01l.81,.81Zm-.69-1.66l.53-.53c.22-.22,.44-.22,.66,0l.88,.88c.22,.22,.22,.44,0,.66l-.53,.53c-.22,.22-.44,.22-.66,0l-.88-.88c-.22-.22-.22-.44,0-.66Z"/>
      <path class="cls-1" d="M362.16,68.06c.34,.34,.67,.34,1.01,0l.71-.71,.02-.17-.07-.07-.83,.83c-.22,.22-.44,.22-.66,0l-.88-.88c-.22-.22-.22-.44,0-.66l.83-.83-.07-.07-.17,.02-.71,.71c-.34,.34-.34,.67,0,1.01l.81,.81Z"/>
      <path class="cls-1" d="M363.91,66.31c.34,.34,.67,.34,1.01,0l.79-.79,.03-.17-.07-.07-.91,.91c-.22,.22-.44,.22-.66,0l-.37-.37,1.31-1.31-.47-.47c-.34-.34-.67-.34-1.01,0l-.46,.46c-.34,.34-.34,.67,0,1.01l.81,.81Zm-.69-1.66l.49-.49c.22-.22,.44-.22,.66,0l.37,.36-1.15,1.15-.36-.36c-.22-.22-.22-.44,0-.66Z"/>
      <path class="cls-1" d="M365.92,64.3c.34,.34,.67,.34,1.01,0l.96-.96-2.62-2.62-.16,.16,.79,.8-.8,.8c-.34,.34-.34,.67,0,1.01l.81,.81Zm-.69-1.66l.82-.82,1.54,1.54-.82,.82c-.22,.22-.44,.22-.66,0l-.88-.88c-.22-.22-.22-.44,0-.66Z"/>
      <path class="cls-1" d="M368.99,62.24l.96-.96-1.82-1.82-.16,.16,1.68,1.68-.82,.82c-.22,.22-.44,.22-.66,0l-1.35-1.35-.16,.16,1.32,1.31c.34,.34,.67,.34,1.01,0Z"/>
      <path class="cls-1" d="M370.69,60.54l-1.58-1.58c0-.12,.04-.24,.16-.35l.45-.45-.07-.07-.17,.03-.34,.34c-.21,.21-.29,.42-.24,.63l1.63,1.63,.16-.16Z"/>
      <path class="cls-1" d="M370.91,56.97c.22-.22,.44-.22,.66,0l.32,.32-.74,.74c-.34,.34-.34,.68,0,1.02,.35,.34,.69,.35,1.03,0l.9-.9-1.32-1.32c-.34-.34-.67-.34-1.01,0l-.65,.65-.02,.17,.07,.07,.76-.76Zm1.87,1.21l-.76,.76c-.22,.22-.44,.22-.66,0l-.09-.09c-.22-.22-.22-.44,0-.66l.76-.76,.75,.75Z"/>
      <path class="cls-1" d="M374.09,57.19l-.14-.14c-.18,.17-.36,.17-.53,0l-2.23-2.23-.16,.16,2.22,2.22c.28,.28,.56,.28,.84,0Z"/>
      <path class="cls-1" d="M376.33,54.9c.54-.54,.54-1.09,0-1.63l-.81-.81c-.54-.54-1.09-.55-1.63,0l-.97,.97,2.44,2.44,.97-.97Zm-2.27-2.29c.42-.42,.84-.42,1.27,0l.86,.86c.42,.42,.42,.84,0,1.27l-.81,.81-2.13-2.13,.81-.81Z"/>
      <path class="cls-1" d="M377.17,53.05c.34,.34,.68,.34,1.01,0l.79-.79,.02-.17-.07-.07-.91,.91c-.22,.22-.44,.22-.66,0l-.38-.38,1.31-1.31-.47-.47c-.34-.34-.67-.34-1.01,0l-.46,.46c-.34,.34-.34,.67,0,1.01l.81,.81Zm-.69-1.66l.49-.49c.22-.22,.44-.22,.66,0l.36,.36-1.15,1.15-.37-.37c-.22-.22-.22-.44,0-.66Z"/>
      <path class="cls-1" d="M379.19,50.26l.52-.37c.2-.14,.4-.11,.62,.11s.21,.42,0,.64l-.82,.82,.07,.07,.17-.02,.69-.69c.34-.34,.36-.67,.04-.99-.29-.29-.59-.31-.93-.07l-.52,.37c-.21,.15-.4,.13-.59-.05-.21-.21-.21-.42,0-.64l.74-.74-.07-.07-.17,.02-.61,.61c-.34,.34-.35,.67-.04,.98,.26,.26,.56,.26,.9,.02Z"/>
      <polygon class="cls-1" points="379.46 47.4 379.22 47.16 379.03 47.35 379.27 47.59 379.46 47.4"/>
      <rect class="cls-1" x="380.53" y="47.48" width=".23" height="2.58" transform="translate(77.13 283.6) rotate(-45.03)"/>
      <path class="cls-1" d="M384.45,46.78l-1.68-1.68,.82-.82c.22-.22,.44-.22,.66,0l1.35,1.35,.16-.16-1.32-1.32c-.34-.34-.67-.34-1.01,0l-.96,.97,1.82,1.82,.16-.16Z"/>
      <path class="cls-1" d="M454.43,35.59c-.29,0-.43,.14-.43,.43v1.21c0,.29,.14,.43,.43,.43h.87l.1-.08v-.06h-.98c-.18,0-.27-.09-.27-.27v-1.27c0-.18,.09-.27,.27-.27h.98v-.06l-.1-.08h-.87Z"/>
      <path class="cls-1" d="M457.36,35.59h-.44c-.29,0-.43,.14-.43,.43v1.21c0,.29,.14,.43,.43,.43h.44c.29,0,.43-.14,.43-.43v-1.21c0-.29-.14-.43-.43-.43Zm.29,1.67c0,.18-.09,.27-.27,.27h-.47c-.18,0-.27-.09-.27-.27v-1.27c0-.18,.09-.27,.27-.27h.47c.18,0,.27,.09,.27,.27v1.27Z"/>
      <polygon class="cls-1" points="459.38 37.1 458.38 37.1 459.09 35.64 459.07 35.59 458.95 35.59 458.22 37.11 458.22 37.23 459.38 37.23 459.38 37.66 459.53 37.66 459.53 36.37 459.38 36.37 459.38 37.1"/>
      <path class="cls-1" d="M460.83,35.59h-.72l-.1,.08v.06h.83c.18,0,.27,.09,.27,.27v.25c0,.15-.07,.24-.2,.26l-.65,.13c-.21,.04-.31,.18-.31,.42v.6h1.31v-.13h-1.16v-.5c0-.15,.07-.24,.2-.26l.65-.13c.21-.04,.31-.18,.31-.42v-.19c0-.29-.14-.43-.43-.43Z"/>
      <path class="cls-1" d="M462.56,35.59h-.44c-.29,0-.43,.14-.43,.43v1.21c0,.29,.14,.43,.43,.43h.44c.29,0,.43-.14,.43-.43v-1.21c0-.29-.14-.43-.43-.43Zm.29,1.67c0,.18-.09,.27-.27,.27h-.47c-.18,0-.27-.09-.27-.27v-1.27c0-.18,.09-.27,.27-.27h.47c.18,0,.27,.09,.27,.27v1.27Z"/>
      <polygon class="cls-1" points="329.62 82.23 330.94 81.47 329.62 80.71 329.62 82.23"/>
    </g>
    <g>
      <path class="cls-1" d="M297.07,135.9c0,4.65-3.79,8.44-8.44,8.44H107.76c-4.65,0-8.44-3.79-8.44-8.44v-9.44h-.25v9.44c0,4.79,3.9,8.69,8.69,8.69h180.87c4.79,0,8.69-3.9,8.69-8.69v-4.44h-.25v4.44Z"/>
      <path class="cls-1" d="M298.18,127.2l.54-.54-.16-.16-.54,.54c-.48-.4-1.17-.4-1.64,0l-.54-.54-.16,.16,.54,.54c-.4,.48-.4,1.17,0,1.65l-.54,.54,.16,.16,.54-.54c.48,.4,1.17,.4,1.65,0l.54,.54,.16-.16-.54-.54c.4-.48,.4-1.17,0-1.65Zm-.33,0l-.65,.65-.65-.65c.39-.31,.92-.31,1.31,0Zm-1.47,.16l.65,.65-.66,.66c-.31-.39-.31-.92,0-1.31Zm.16,1.47l.66-.66,.66,.66c-.39,.31-.93,.31-1.31,0Zm1.47-.16l-.66-.66,.66-.66c.31,.39,.31,.93,0,1.31Z"/>
      <path class="cls-1" d="M301.62,127h-.71c-.29,0-.43,.14-.43,.43v1.21c0,.29,.14,.43,.43,.43h.71c.29,0,.43-.14,.43-.43v-1.21c0-.29-.14-.43-.43-.43Zm.29,1.67c0,.18-.09,.27-.27,.27h-.74c-.18,0-.27-.09-.27-.27v-1.27c0-.18,.09-.27,.27-.27h.74c.18,0,.27,.09,.27,.27v1.27Z"/>
      <polygon class="cls-1" points="302.6 129.07 302.74 129.07 302.74 128.13 303.82 128.13 303.82 128 302.74 128 302.74 127.13 303.91 127.13 303.91 127 302.6 127 302.6 129.07"/>
      <polygon class="cls-1" points="304.28 129.07 304.43 129.07 304.43 128.13 305.5 128.13 305.5 128 304.43 128 304.43 127.13 305.59 127.13 305.59 127 304.28 127 304.28 129.07"/>
      <polygon class="cls-1" points="306.11 127 305.97 127 305.97 129.07 307.19 129.07 307.19 128.94 306.11 128.94 306.11 127"/>
      <rect class="cls-1" x="307.55" y="127" width=".14" height="2.07"/>
      <polygon class="cls-1" points="309.67 128.87 308.43 127 308.26 127 308.26 129.07 308.4 129.07 308.4 127.2 309.65 129.07 309.82 129.07 309.82 127 309.67 127 309.67 128.87"/>
      <polygon class="cls-1" points="311.7 127.13 311.7 127 310.39 127 310.39 129.07 311.7 129.07 311.7 128.94 310.53 128.94 310.53 128.04 311.61 128.04 311.61 127.91 310.53 127.91 310.53 127.13 311.7 127.13"/>
      <polygon class="cls-1" points="146.04 148.78 146.04 149.19 144.42 149.19 144.42 148.68 144.19 148.68 144.19 149.91 144.42 149.91 144.42 149.44 146.26 149.44 146.26 148.92 146.16 148.78 146.04 148.78"/>
      <path class="cls-1" d="M145.8,150.33h-1.15c-.31,0-.46,.15-.46,.46v.43c0,.31,.15,.46,.46,.46h1.15c.31,0,.46-.15,.46-.46v-.43c0-.31-.15-.46-.46-.46Zm.23,.89c0,.14-.07,.2-.2,.2h-1.21c-.14,0-.2-.07-.2-.2v-.44c0-.14,.07-.2,.2-.2h1.21c.14,0,.2,.07,.2,.2v.44Z"/>
      <path class="cls-1" d="M145.8,152.06h-1.15c-.31,0-.46,.15-.46,.46v.43c0,.31,.15,.46,.46,.46h1.15c.31,0,.46-.15,.46-.46v-.43c0-.31-.15-.46-.46-.46Zm.23,.89c0,.14-.07,.2-.2,.2h-1.21c-.14,0-.2-.07-.2-.2v-.44c0-.14,.07-.2,.2-.2h1.21c.14,0,.2,.07,.2,.2v.44Z"/>
      <path class="cls-1" d="M182.19,148.7v.83c0,.14-.07,.2-.2,.2h-.24c-.11,0-.18-.05-.2-.15l-.12-.61c-.04-.22-.19-.33-.44-.33h-.63v1.35h.23v-1.1h.42c.11,0,.18,.05,.2,.15l.12,.62c.04,.22,.19,.33,.44,.33h.2c.31,0,.46-.15,.46-.46v-.7l-.11-.13h-.12Z"/>
      <path class="cls-1" d="M181.96,150.37h-1.15c-.31,0-.46,.15-.46,.46v.43c0,.31,.15,.46,.46,.46h1.15c.31,0,.46-.15,.46-.46v-.43c0-.31-.15-.46-.46-.46Zm.23,.89c0,.14-.07,.2-.2,.2h-1.21c-.14,0-.2-.07-.2-.2v-.44c0-.14,.07-.2,.2-.2h1.21c.14,0,.2,.07,.2,.2v.44Z"/>
      <path class="cls-1" d="M181.96,152.1h-1.15c-.31,0-.46,.15-.46,.46v.43c0,.31,.15,.46,.46,.46h1.15c.31,0,.46-.15,.46-.46v-.43c0-.31-.15-.46-.46-.46Zm.23,.89c0,.14-.07,.2-.2,.2h-1.21c-.14,0-.2-.07-.2-.2v-.44c0-.14,.07-.2,.2-.2h1.21c.14,0,.2,.07,.2,.2v.44Z"/>
      <path class="cls-1" d="M218.2,148.68v.83c0,.14-.07,.2-.2,.2h-.23c-.14,0-.2-.07-.2-.2v-.64h-.23v.64c0,.14-.07,.2-.2,.2h-.34c-.14,0-.2-.07-.2-.2v-.86h-.12l-.11,.14v.73c0,.31,.15,.46,.46,.46h.33c.08,0,.14-.03,.2-.08l.1-.1,.11,.1s.11,.08,.19,.08h.22c.31,0,.46-.15,.46-.46v-.7l-.11-.13h-.12Z"/>
      <path class="cls-1" d="M217.97,150.36h-1.15c-.31,0-.46,.15-.46,.46v.43c0,.31,.15,.46,.46,.46h1.15c.31,0,.46-.15,.46-.46v-.43c0-.31-.15-.46-.46-.46Zm.23,.89c0,.14-.07,.2-.2,.2h-1.21c-.14,0-.2-.07-.2-.2v-.44c0-.14,.07-.2,.2-.2h1.21c.14,0,.2,.07,.2,.2v.44Z"/>
      <path class="cls-1" d="M217.97,152.09h-1.15c-.31,0-.46,.15-.46,.46v.43c0,.31,.15,.46,.46,.46h1.15c.31,0,.46-.15,.46-.46v-.43c0-.31-.15-.46-.46-.46Zm.23,.89c0,.14-.07,.2-.2,.2h-1.21c-.14,0-.2-.07-.2-.2v-.44c0-.14,.07-.2,.2-.2h1.21c.14,0,.2,.07,.2,.2v.44Z"/>
      <polygon class="cls-1" points="252.73 148.64 252.73 149.73 252.34 149.73 252.34 149.99 253.63 149.99 253.63 149.73 252.96 149.73 252.96 148.91 254.35 149.57 254.42 149.54 254.42 149.33 252.94 148.64 252.73 148.64"/>
      <path class="cls-1" d="M253.96,150.37h-1.15c-.31,0-.46,.15-.46,.46v.43c0,.31,.15,.46,.46,.46h1.15c.31,0,.46-.15,.46-.46v-.43c0-.31-.15-.46-.46-.46Zm.23,.89c0,.14-.07,.2-.2,.2h-1.21c-.14,0-.2-.07-.2-.2v-.44c0-.14,.07-.2,.2-.2h1.21c.14,0,.2,.07,.2,.2v.44Z"/>
      <path class="cls-1" d="M253.96,152.1h-1.15c-.31,0-.46,.15-.46,.46v.43c0,.31,.15,.46,.46,.46h1.15c.31,0,.46-.15,.46-.46v-.43c0-.31-.15-.46-.46-.46Zm.23,.89c0,.14-.07,.2-.2,.2h-1.21c-.14,0-.2-.07-.2-.2v-.44c0-.14,.07-.2,.2-.2h1.21c.14,0,.2,.07,.2,.2v.44Z"/>
      <path class="cls-1" d="M289.33,149.54c0,.14-.07,.2-.2,.2h-.37c-.14,0-.2-.07-.2-.2v-.92h-.12l-.11,.13v.79c0,.31,.15,.46,.46,.46h.31c.31,0,.46-.15,.46-.46v-.64h.61v1.01h.23v-1.26h-1.07v.89Z"/>
      <path class="cls-1" d="M289.94,150.39h-1.15c-.31,0-.46,.15-.46,.46v.43c0,.31,.15,.46,.46,.46h1.15c.31,0,.46-.15,.46-.46v-.43c0-.31-.15-.46-.46-.46Zm.23,.89c0,.14-.07,.2-.2,.2h-1.21c-.14,0-.2-.07-.2-.2v-.44c0-.14,.07-.2,.2-.2h1.21c.14,0,.2,.07,.2,.2v.44Z"/>
      <path class="cls-1" d="M289.94,152.12h-1.15c-.31,0-.46,.15-.46,.46v.43c0,.31,.15,.46,.46,.46h1.15c.31,0,.46-.15,.46-.46v-.43c0-.31-.15-.46-.46-.46Zm.23,.89c0,.14-.07,.2-.2,.2h-1.21c-.14,0-.2-.07-.2-.2v-.44c0-.14,.07-.2,.2-.2h1.21c.14,0,.2,.07,.2,.2v.44Z"/>
      <path class="cls-1" d="M109.8,150.33h-1.15c-.31,0-.46,.15-.46,.46v.43c0,.31,.15,.46,.46,.46h1.15c.31,0,.46-.15,.46-.46v-.43c0-.31-.15-.46-.46-.46Zm.23,.89c0,.14-.07,.2-.2,.2h-1.21c-.14,0-.2-.07-.2-.2v-.44c0-.14,.07-.2,.2-.2h1.21c.14,0,.2,.07,.2,.2v.44Z"/>
      <path class="cls-1" d="M109.8,152.06h-1.15c-.31,0-.46,.15-.46,.46v.43c0,.31,.15,.46,.46,.46h1.15c.31,0,.46-.15,.46-.46v-.43c0-.31-.15-.46-.46-.46Zm.23,.89c0,.14-.07,.2-.2,.2h-1.21c-.14,0-.2-.07-.2-.2v-.44c0-.14,.07-.2,.2-.2h1.21c.14,0,.2,.07,.2,.2v.44Z"/>
      <path class="cls-1" d="M109.8,148.68h-1.15c-.31,0-.46,.15-.46,.46v.43c0,.31,.15,.46,.46,.46h1.15c.31,0,.46-.15,.46-.46v-.43c0-.31-.15-.46-.46-.46Zm.23,.89c0,.14-.07,.2-.2,.2h-1.21c-.14,0-.2-.07-.2-.2v-.44c0-.14,.07-.2,.2-.2h1.21c.14,0,.2,.07,.2,.2v.44Z"/>
    </g>
  </g>
</svg>